# xmcd CD database file
#
# Track frame offsets:
#	150
#	15733
#	28757
#	44640
#	61421
#	81798
#	99344
#	117476
#	133642
#	149549
#	165197
#	184240
#	201567
#	220141
#	236988
#	254068
#	271320
#
# Disc length: 3889 seconds
#
# Revision: 8
# Processed by: cddbd v1.5.1PL2 Copyright (c) Steve Scherf et al.
# Submitted via: jetAudio 5
#
DISCID=060f2f11
DTITLE=Lonestar - From There To Here: Greatest Hits
DYEAR=1900
DGENRE=
TTITLE0=Tequila Talkin'
TTITLE1=No News
TTITLE2=Runnin' Away With My Heart
TTITLE3=Come Cryin' To Me
TTITLE4=You Walked In
TTITLE5=Everything's Changed
TTITLE6=Amazed
TTITLE7=Smile
TTITLE8=What About Now
TTITLE9=Tell Her
TTITLE10=I'm Already There
TTITLE11=With Me
TTITLE12=Not a Day Goes By
TTITLE13=My Front Porch Looking In
TTITLE14=I Pray
TTITLE15=Walking In Memphis
TTITLE16=I'm Already There  (Message From Home)
EXTD=
EXTT0=
EXTT1=
EXTT2=
EXTT3=
EXTT4=
EXTT5=
EXTT6=
EXTT7=
EXTT8=
EXTT9=
EXTT10=
EXTT11=
EXTT12=
EXTT13=
EXTT14=
EXTT15=
EXTT16=
PLAYORDER=
